<svg xmlns="http://www.w3.org/2000/svg" style="display: none;">

<symbol id="green__phone"  width="" height="" viewBox="0 0 13 14" fill="none" xmlns="http://www.w3.org/2000/svg">
    <path d="M12.6591 10.2746L10.8411 8.32084C10.1918 7.62307 9.08802 7.90221 8.82831 8.80927C8.63352 9.43729 7.98423 9.78617 7.39987 9.64659C6.1013 9.29771 4.34822 7.48352 4.02358 6.01822C3.82879 5.3902 4.21836 4.69244 4.80272 4.48313C5.6468 4.20403 5.90651 3.01783 5.25722 2.32007L3.43922 0.366326C2.91979 -0.122109 2.14064 -0.122109 1.68614 0.366326L0.452493 1.69208C-0.781154 3.08761 0.582351 6.78576 3.634 10.0652C6.68566 13.3447 10.1269 14.8798 11.4255 13.4843L12.6591 12.1585C13.1136 11.6003 13.1136 10.763 12.6591 10.2746Z" fill="#64A072"/>
</symbol>

<symbol id="arr_dr" width="14" height="14" viewBox="0 0 14 14" fill="none" xmlns="http://www.w3.org/2000/svg">
<path d="M13 14C13.5523 14 14 13.5523 14 13L14 4C14 3.44771 13.5523 3 13 3C12.4477 3 12 3.44771 12 4L12 12L4 12C3.44771 12 3 12.4477 3 13C3 13.5523 3.44771 14 4 14L13 14ZM1 1L0.292893 1.70711L12.2929 13.7071L13 13L13.7071 12.2929L1.70711 0.292893L1 1Z" fill="currentColor"/>
</symbol>

<symbol id="white__phone" width="15" height="15" viewBox="0 0 15 15" fill="none" xmlns="http://www.w3.org/2000/svg">
    <path d="M14.6067 11.0085L12.509 8.91518C11.7598 8.16758 10.4862 8.46665 10.1865 9.43851C9.96175 10.1114 9.21257 10.4852 8.53831 10.3356C7.03996 9.96183 5.01718 8.01806 4.64259 6.44809C4.41783 5.77522 4.86734 5.02761 5.5416 4.80336C6.51553 4.50432 6.81521 3.23339 6.06603 2.48578L3.96833 0.392492C3.36898 -0.130831 2.46997 -0.130831 1.94555 0.392492L0.522108 1.81294C-0.901331 3.30815 0.671943 7.27045 4.19308 10.7842C7.71422 14.2979 11.6849 15.9427 13.1832 14.4475L14.6067 13.027C15.1311 12.4289 15.1311 11.5318 14.6067 11.0085Z" fill="white"/>
</symbol>

<symbol id="tg" width="13" height="12" viewBox="0 0 13 12" fill="none" xmlns="http://www.w3.org/2000/svg">
    <g clip-path="url(#clip0_90_153)">
    <path d="M5.10086 7.89733L4.88582 11.2275C5.19349 11.2275 5.32674 11.082 5.48653 10.9073L6.92899 9.38949L9.91791 11.7995C10.4661 12.1358 10.8523 11.9587 11.0002 11.2442L12.9621 1.12239L12.9626 1.1218C13.1365 0.229603 12.6696 -0.119282 12.1355 0.0995915L0.603406 4.96073C-0.183635 5.29709 -0.171719 5.78016 0.469615 5.99904L3.41791 7.00872L10.2662 2.29071C10.5885 2.05574 10.8815 2.18575 10.6405 2.42072L5.10086 7.89733Z" fill="white"/>
    </g>
    <defs>
    <clipPath id="clip0_90_153">
    <rect width="13" height="12" fill="white"/>
    </clipPath>
    </defs>
</symbol>


<symbol id="vk"  width="15" height="10" viewBox="0 0 15 10" fill="none" xmlns="http://www.w3.org/2000/svg">
    <path d="M12.4469 5.61646C12.2044 5.2929 12.2737 5.14895 12.4469 4.85974C12.45 4.85643 14.4519 1.93387 14.6581 0.942731L14.6594 0.942071C14.7619 0.580877 14.6594 0.31543 14.1637 0.31543H12.5237C12.1062 0.31543 11.9137 0.543239 11.8106 0.798122C11.8106 0.798122 10.9756 2.90982 9.79437 4.27866C9.41312 4.67419 9.23687 4.80097 9.02875 4.80097C8.92625 4.80097 8.76687 4.67419 8.76687 4.31299V0.942071C8.76687 0.508903 8.65 0.31543 8.30437 0.31543H5.72562C5.46375 0.31543 5.30812 0.517487 5.30812 0.705677C5.30812 1.11639 5.89875 1.21082 5.96 2.36638V4.8736C5.96 5.42299 5.86562 5.52401 5.65625 5.52401C5.09875 5.52401 3.74562 3.40373 2.94375 0.977068C2.78187 0.506261 2.62375 0.31609 2.20312 0.31609H0.5625C0.094375 0.31609 0 0.543899 0 0.798782C0 1.24912 0.5575 3.48826 2.5925 6.44648C3.94875 8.46573 5.85875 9.55988 7.59625 9.55988C8.64062 9.55988 8.76812 9.31688 8.76812 8.8989C8.76812 6.96945 8.67375 6.7872 9.19687 6.7872C9.43937 6.7872 9.85687 6.91398 10.8319 7.88795C11.9462 9.04285 12.1294 9.55988 12.7531 9.55988H14.3931C14.8606 9.55988 15.0975 9.31688 14.9612 8.83749C14.6494 7.82918 12.5419 5.75513 12.4469 5.61646Z" fill="white"/>
</symbol>


<symbol id="wa"  width="14" height="14" viewBox="0 0 14 14" fill="none" xmlns="http://www.w3.org/2000/svg">
    <path d="M7.00175 0H6.99825C3.13863 0 0 3.1395 0 7C0 8.53125 0.4935 9.9505 1.33263 11.1029L0.46025 13.7034L3.15088 12.8433C4.25775 13.5765 5.57812 14 7.00175 14C10.8614 14 14 10.8596 14 7C14 3.14038 10.8614 0 7.00175 0ZM11.0749 9.88488C10.906 10.3617 10.2358 10.7572 9.70113 10.8727C9.33537 10.9506 8.85763 11.0128 7.24937 10.346C5.19225 9.49375 3.8675 7.40337 3.76425 7.26775C3.66537 7.13212 2.933 6.16088 2.933 5.15637C2.933 4.15188 3.44313 3.66275 3.64875 3.45275C3.81763 3.28038 4.09675 3.20162 4.3645 3.20162C4.45113 3.20162 4.529 3.206 4.599 3.2095C4.80463 3.21825 4.90788 3.2305 5.0435 3.55513C5.21238 3.962 5.62362 4.9665 5.67262 5.06975C5.7225 5.173 5.77238 5.313 5.70238 5.44863C5.63675 5.58863 5.579 5.65075 5.47575 5.76975C5.3725 5.88875 5.2745 5.97975 5.17125 6.1075C5.07675 6.21863 4.97 6.33763 5.089 6.54325C5.208 6.7445 5.61925 7.41562 6.22475 7.95462C7.00612 8.65025 7.63962 8.8725 7.86625 8.967C8.03512 9.037 8.23637 9.02038 8.35975 8.88913C8.51637 8.72025 8.70975 8.44025 8.90662 8.16463C9.04663 7.96688 9.22338 7.94237 9.40888 8.01237C9.59788 8.078 10.598 8.57237 10.8036 8.67475C11.0092 8.778 11.1449 8.827 11.1947 8.91363C11.2437 9.00025 11.2437 9.40712 11.0749 9.88488Z" fill="white"/>
</symbol>

<symbol id="arr-d" width="22" height="12" viewBox="0 0 22 12" fill="none" xmlns="http://www.w3.org/2000/svg">
<path fill-rule="evenodd" clip-rule="evenodd" d="M21.2602 0.39052C21.8026 0.911227 21.8026 1.75544 21.2602 2.27615L11.8158 11.3428C11.2734 11.8635 10.394 11.8635 9.85159 11.3428L0.40715 2.27615C-0.135212 1.75544 -0.135212 0.911226 0.40715 0.390519C0.949511 -0.130174 1.82895 -0.130174 2.37132 0.390519L10.8337 8.5144L19.296 0.39052C19.8384 -0.130173 20.7178 -0.130173 21.2602 0.39052Z" fill="#6AA67A"/>
</symbol>

<symbol id="play" width="20" height="22" viewBox="0 0 20 22" fill="none" xmlns="http://www.w3.org/2000/svg">
    <path d="M18.5 8.40193C20.5 9.55663 20.5 12.4434 18.5 13.5981L5 21.3923C3 22.547 0.500001 21.1036 0.500001 18.7942L0.500002 3.20577C0.500002 0.896368 3 -0.547006 5 0.607695L18.5 8.40193Z" fill="currentColor"/>
</symbol>

<symbol id="arr-slider" width="34" height="16" viewBox="0 0 34 16" fill="none" xmlns="http://www.w3.org/2000/svg">
    <path d="M0.292893 7.29289C-0.0976295 7.68341 -0.0976296 8.31658 0.292892 8.7071L6.65685 15.0711C7.04738 15.4616 7.68054 15.4616 8.07107 15.0711C8.46159 14.6805 8.46159 14.0474 8.07107 13.6569L2.41421 8L8.07107 2.34314C8.46159 1.95262 8.46159 1.31945 8.07107 0.92893C7.68054 0.538406 7.04738 0.538405 6.65686 0.92893L0.292893 7.29289ZM34 8L34 7L1 7L1 8L1 9L34 9L34 8Z" fill="white"/>
</symbol>

<symbol id="arr-dropdown" xmlns="http://www.w3.org/2000/svg" viewBox="0 0 185.3 103.4">
    <path d="M92.7 103.4c-2.8 0-5.5-1-7.6-3.1l-82-82C-1 14.1-1 7.3 3.1 3.1c4.2-4.2 11-4.2 15.2 0l74.3 74.3L167 3.1c4.2-4.2 11-4.2 15.2 0 4.2 4.2 4.2 11 0 15.2l-81.9 81.9c-2.1 2.2-4.9 3.2-7.6 3.2z" fill="currentColor"/>
</symbol>

</svg>
